<svg width="102" height="27" viewBox="0 0 102 27" fill="none" xmlns="http://www.w3.org/2000/svg">
<path d="M100.745 16.3518C100.446 16.1057 99.9907 16.1612 99.7243 16.4386L96.649 19.6306H96.644C95.9568 19.5582 94.9707 19.6692 93.5289 20.0986C89.3356 21.3532 88.0258 18.54 87.8639 18.1637L80.9016 5.20296C80.4982 4.14623 79.9777 3.32351 79.3427 2.73483C78.7078 2.14373 77.9035 1.84698 76.9273 1.84215C75.9064 1.83733 75.0747 2.12443 74.4347 2.70829C73.7923 3.28974 73.2644 4.10762 72.8485 5.15953L68.5506 16.1588C68.3091 16.7788 67.6243 17.1238 66.9594 16.9622C66.947 16.9598 66.9345 16.9573 66.9221 16.9525C66.1974 16.774 65.6919 16.1419 65.6969 15.4181L65.7667 3.52618C65.7691 2.90613 65.555 2.39224 65.1192 1.98209C64.6835 1.57194 64.1182 1.36686 63.4235 1.36204L54.2001 1.31137C53.5975 1.30896 53.0895 1.48026 52.6761 1.82768C52.2628 2.1751 51.9789 2.7855 51.8295 3.6637L50.3678 12.576C50.2159 13.5411 49.7179 16.2818 49.4988 16.9212C49.3668 17.3072 48.9758 17.7173 48.6895 17.9827C48.4903 18.1661 48.2238 18.2674 47.9474 18.2674C47.0584 18.2143 46.5256 18.4532 46.1296 18.8416C45.659 19.2228 45.8557 20.6366 44.2122 21.3556C41.5578 22.5185 39.3839 20.82 38.6892 20.1372C37.8973 19.3603 37.9123 16.5351 38.7141 15.7679C39.6578 14.8632 44.023 15.7969 44.023 15.7969C44.8223 15.8017 45.4673 15.587 45.9578 15.1503C46.4484 14.716 46.6974 14.108 46.6999 13.3287C46.7048 12.5495 46.4583 11.9366 45.9628 11.4903C45.4673 11.044 44.8298 10.8196 44.0529 10.8148C44.0529 10.8148 39.6778 11.7002 38.744 10.7858C37.977 10.0355 37.9944 7.30437 38.7689 6.56128C39.7973 5.57451 44.5609 6.59264 44.5609 6.59264C45.3253 6.59747 45.9628 6.38516 46.4708 5.95329C46.9788 5.52384 47.2352 4.90862 47.2377 4.10762C47.2427 3.3597 46.9962 2.75896 46.5007 2.30055C46.0051 1.84457 45.3677 1.61295 44.5907 1.60813L35.97 1.55987C35.2379 1.55505 34.6029 1.79873 34.0675 2.29332C33.5322 2.7855 33.2632 3.40796 33.2582 4.16311L33.191 15.7124C33.1835 16.8005 31.9485 17.4616 30.9947 16.8874L24.5703 13.0223C24.2665 12.6966 24.2739 12.202 24.5927 11.8932C24.9164 11.5772 25.3621 11.1429 25.8676 10.6459C27.9942 8.56377 31.2238 5.3815 31.3857 5.11611C31.6272 4.72043 31.7492 4.32235 31.7517 3.92426C31.7517 3.60097 31.6696 3.28491 31.5002 2.97127C31.3309 2.65763 30.305 1.70222 29.9763 1.55987C29.6501 1.41753 29.3264 1.34756 29.0051 1.34515C28.4847 1.34274 21.3456 11.6495 18.7658 10.6555C17.8071 10.2864 19.7992 4.10039 17.5407 1.34515C16.0591 -0.461919 6.7037 5.40804 6.46216 5.55521C3.30221 7.49015 2.96107 10.67 3.50142 12.1996V12.2069L1.21052 14.5761C0.996367 14.8004 0.929134 15.1382 1.08601 15.4012C1.34249 15.8331 1.9202 15.8741 2.24142 15.5411L4.44019 13.2588C4.44019 13.2588 4.44517 13.2564 4.44766 13.2588C5.07766 13.4638 5.90687 13.1912 6.81327 12.1731L10.6729 8.38765C11.3104 7.76278 12.3936 7.84239 12.8991 8.57583C14.6696 11.1405 13.2054 14.7546 13.188 17.8621L13.0883 23.2447C13.0834 24.1036 13.3349 24.7767 13.8429 25.2641C14.3508 25.7514 15.0157 25.9951 15.8349 25.9999C16.6442 26.0048 17.3091 25.7659 17.827 25.2858C18.345 24.8057 18.6089 24.135 18.6139 23.2736L18.7185 17.1552C18.7235 16.4338 29.8343 20.1155 33.0814 24.0433C33.9032 25.0373 35.1383 25.03 35.457 25.0325C36.0173 25.0349 37.7703 24.2701 42.7929 24.4583C46.2093 24.5861 48.8364 26.5862 50.4749 24.6947C50.6666 24.4727 50.8235 24.0385 50.9156 23.6838C51.0451 23.182 51.4261 21.7995 51.8046 21.4328C51.9938 21.2494 64.6112 19.8405 67.3703 21.1216C68.1173 21.469 66.561 25.6622 69.4396 25.831C74.1185 26.1061 73.0428 21.3001 73.5532 21.1505C74.9153 20.75 80.6052 20.3447 82.6222 21.2012C83.1327 21.4183 87.5751 24.7092 88.1378 24.977C92.2913 26.9505 97.9364 22.4678 97.7994 20.4798V20.475L100.808 17.353C101.084 17.0659 101.061 16.6099 100.748 16.3518H100.745ZM61.3492 14.1732C61.3492 14.9766 60.7665 15.669 59.9522 15.8138C58.0324 16.1588 54.7404 16.5762 54.0656 15.5291C53.8216 15.1503 55.3157 8.48898 55.9706 5.63483C56.1424 4.88449 56.8272 4.35371 57.619 4.35371C58.2615 4.35371 59.0334 4.35371 59.7082 4.35371C60.6171 4.35371 61.3517 5.06785 61.3517 5.94606V14.1732H61.3492ZM78.0827 15.6183H75.4084C74.6339 15.6183 74.2704 15.1889 74.3301 14.1707C74.3301 14.1707 74.9079 6.98349 76.8601 7.01003C78.5658 7.03416 79.2556 11.6447 79.5021 14.108C79.5843 14.9211 78.9244 15.6183 78.0803 15.6183H78.0827Z" fill="#1D1D1B" stroke="#1D1D1B" stroke-miterlimit="10"/>
</svg>
