<svg width="252" height="64" viewBox="0 0 252 64" fill="none" xmlns="http://www.w3.org/2000/svg">
<path d="M250.363 38.865C249.616 38.258 248.477 38.3949 247.811 39.0792L240.123 46.952H240.11C238.392 46.7735 235.927 47.0472 232.322 48.1065C221.839 51.2009 218.564 44.2623 218.16 43.334L200.754 11.3666C199.745 8.76012 198.444 6.73092 196.857 5.27894C195.269 3.821 193.259 3.08906 190.818 3.07716C188.266 3.06526 186.187 3.7734 184.587 5.21348C182.981 6.64761 181.661 8.66491 180.621 11.2594L169.876 38.3889C169.273 39.9182 167.561 40.7692 165.899 40.3705C165.867 40.3645 165.836 40.3586 165.805 40.3467C163.994 39.9063 162.73 38.3472 162.742 36.562L162.917 7.23078C162.923 5.70144 162.387 4.43393 161.298 3.4223C160.209 2.41068 158.795 1.90486 157.059 1.89296L134 1.76799C132.494 1.76204 131.224 2.18455 130.19 3.04146C129.157 3.89836 128.447 5.4039 128.074 7.56998L124.42 29.552C124.04 31.9323 122.795 38.6924 122.247 40.2693C121.917 41.2215 120.94 42.2331 120.224 42.8877C119.726 43.3399 119.06 43.5899 118.369 43.5899C116.146 43.4589 114.814 44.0481 113.824 45.0061C112.648 45.9464 113.139 49.4335 109.031 51.2068C102.394 54.0751 96.9598 49.8857 95.223 48.2017C93.2433 46.2855 93.2807 39.3172 95.2852 37.4249C97.6446 35.1933 108.558 37.4963 108.558 37.4963C110.556 37.5082 112.168 36.9786 113.395 35.9015C114.621 34.8304 115.243 33.3308 115.25 31.4087C115.262 29.4866 114.646 27.9751 113.407 26.8742C112.168 25.7733 110.574 25.2199 108.632 25.208C108.632 25.208 97.6944 27.3919 95.3599 25.1366C93.4425 23.2859 93.4861 16.5497 95.4222 14.7168C97.9932 12.283 109.902 14.7942 109.902 14.7942C111.813 14.8061 113.407 14.2824 114.677 13.2172C115.947 12.158 116.588 10.6406 116.594 8.66491C116.607 6.82018 115.99 5.33844 114.752 4.2078C113.513 3.08311 111.919 2.51184 109.977 2.49994L88.4249 2.38092C86.5947 2.36902 85.0073 2.97005 83.6688 4.18995C82.3304 5.4039 81.6581 6.9392 81.6456 8.80178L81.4775 37.288C81.4589 39.9718 78.3711 41.6023 75.9868 40.186L59.9256 30.6529C59.1661 29.8496 59.1848 28.6297 59.9817 27.868C60.7909 27.0884 61.9053 26.0173 63.169 24.7914C68.4854 19.6559 76.5596 11.8069 76.9642 11.1523C77.5681 10.1764 77.8731 9.19453 77.8793 8.21266C77.8793 7.41526 77.6739 6.63571 77.2506 5.86211C76.8273 5.08851 74.2624 2.73202 73.4407 2.38092C72.6252 2.02983 71.8159 1.85726 71.0129 1.85131C69.7118 1.84535 51.8639 27.267 45.4145 24.8152C43.0178 23.9048 47.998 8.64706 42.3517 1.85131C38.6476 -2.6058 15.2593 11.8724 14.6554 12.2354C6.75553 17.0079 5.90266 24.8509 7.25355 28.6237V28.6416L1.52629 34.4852C0.990919 35.0386 0.822836 35.8717 1.21503 36.5204C1.85623 37.5855 3.3005 37.6867 4.10356 36.8655L9.60048 31.2361C9.60048 31.2361 9.61293 31.2302 9.61915 31.2361C11.1941 31.7419 13.2672 31.0695 15.5332 28.5583L25.1823 19.2215C26.776 17.6803 29.484 17.8767 30.7477 19.6857C35.1739 26.0113 31.5135 34.9256 31.4699 42.5901L31.2209 55.8662C31.2084 57.9847 31.8372 59.645 33.1071 60.847C34.3771 62.0491 36.0392 62.6501 38.0874 62.662C40.1106 62.6739 41.7727 62.0848 43.0676 60.9006C44.3624 59.7164 45.0223 58.0621 45.0348 55.9377L45.2962 40.8466C45.3087 39.0673 73.0859 48.1481 81.2036 57.8359C83.258 60.2877 86.3457 60.2698 87.1425 60.2758C88.5432 60.2817 92.9258 58.3953 105.482 58.8595C114.023 59.1749 120.591 64.108 124.687 59.4427C125.167 58.8952 125.559 57.824 125.789 56.9493C126.113 55.7115 127.065 52.3018 128.011 51.3972C128.485 50.945 160.028 47.4697 166.926 50.6296C168.793 51.4865 164.903 61.8289 172.099 62.2455C183.796 62.9238 181.107 51.0699 182.383 50.701C185.788 49.7132 200.013 48.7134 205.056 50.826C206.332 51.3615 217.438 59.4784 218.845 60.1389C229.228 65.0066 243.341 53.9501 242.999 49.0467V49.0348L250.519 41.3345C251.21 40.6264 251.154 39.5017 250.369 38.865H250.363ZM151.873 33.4914C151.873 35.473 150.416 37.1809 148.381 37.5379C143.581 38.3889 135.351 39.4184 133.664 36.8358C133.054 35.9015 136.789 19.4715 138.426 12.4317C138.856 10.5811 140.568 9.27189 142.548 9.27189C144.154 9.27189 146.083 9.27189 147.771 9.27189C150.043 9.27189 151.879 11.0333 151.879 13.1994V33.4914H151.873ZM193.707 37.0559H187.021C185.085 37.0559 184.176 35.9967 184.325 33.4855C184.325 33.4855 185.77 15.7582 190.65 15.8237C194.915 15.8832 196.639 27.255 197.255 33.3308C197.461 35.3362 195.811 37.0559 193.701 37.0559H193.707Z" fill="white" stroke="white" stroke-miterlimit="10"/>
</svg>
